<svg xmlns="http://www.w3.org/2000/svg" viewBox="0 0 48 48"><defs><style>.cls-1{fill:#9dcc6b}.cls-2{fill:#b5e08c}.cls-3{fill:#84b749}</style></defs><g id="Money_and_Coin" data-name="Money and Coin"><path class="cls-1" d="M1 11h38v18H1z"/><path class="cls-2" d="M39 11v15H7a3 3 0 0 1-3-3V11z"/><path class="cls-3" d="M7 11a6 6 0 0 1-6 6v-2a4 4 0 0 0 4-4zM24.35 11h-8.7a10 10 0 0 0 0 18h8.7a10 10 0 0 0 0-18zM20 28a8 8 0 1 1 8-8 8 8 0 0 1-8 8z"/><path class="cls-3" d="M20 17a1 1 0 0 1 1 1 1 1 0 0 0 1 1c1.66 0 1.21-3-1-3.82a1 1 0 1 0-2 0A3 3 0 0 0 20 21a1 1 0 1 1-1 1 1 1 0 0 0-1-1c-1.66 0-1.21 3 1 3.82a1 1 0 1 0 2 0A3 3 0 0 0 20 19a1 1 0 0 1 0-2zM6.71 19.29a1 1 0 1 0 0 1.42 1 1 0 0 0 0-1.42zM34.71 19.29a1 1 0 0 0-1.54 1.27 1 1 0 1 0 1.54-1.27z"/><path class="cls-1" d="M3 7h34v4H3z"/><path class="cls-2" d="M37 7v2H8a2 2 0 0 1-2-2z"/><path class="cls-3" d="M39 15v2a6 6 0 0 1-6-6h2a4 4 0 0 0 4 4zM7 29H5a4 4 0 0 0-4-4v-2a6 6 0 0 1 6 6zM39 23v2a4 4 0 0 0-4 4h-2a6 6 0 0 1 6-6z"/><path d="M47 32a9 9 0 1 1-14.28-7.28A9 9 0 0 1 47 32z" style="fill:#fc6"/><path d="M45.67 36.69c-8 4.86-17.26-4.33-12.36-12.36 8.03-4.92 17.26 4.36 12.36 12.36z" style="fill:#ffde76"/><path d="M38 31a1 1 0 1 1 1-1 1 1 0 0 0 1 1c1.66 0 1.21-3-1-3.82a1 1 0 1 0-2 0A3 3 0 0 0 38 33a1 1 0 1 1-1 1 1 1 0 0 0-1-1c-1.66 0-1.21 3 1 3.82a1 1 0 1 0 2 0A3 3 0 0 0 38 31z" style="fill:#f8834b"/></g></svg>